<?xml version="1.0" standalone="no"?>
<!DOCTYPE svg PUBLIC "-//W3C//DTD SVG 20010904//EN"
 "http://www.w3.org/TR/2001/REC-SVG-20010904/DTD/svg10.dtd">
<svg version="1.0" xmlns="http://www.w3.org/2000/svg"
 width="182.000000pt" height="182.000000pt" viewBox="0 0 182.000000 182.000000"
 preserveAspectRatio="xMidYMid meet">
<metadata>
Created by potrace 1.14, written by Peter Selinger 2001-2017
</metadata>
<g transform="translate(0.000000,182.000000) scale(0.100000,-0.100000)"
fill="#000000" stroke="none">
<path d="M768 1812 c-23 -3 -28 -8 -29 -33 0 -16 -1 -66 -2 -111 l-2 -83 -55
0 -55 0 -1 89 c0 82 -2 90 -22 97 -12 5 -24 4 -27 -1 -3 -4 -22 -11 -43 -15
-51 -8 -135 -57 -139 -81 -1 -10 -3 -104 -3 -208 0 -180 1 -191 22 -222 12
-18 25 -32 28 -31 3 0 15 -2 27 -7 22 -7 22 -9 21 -229 l0 -221 -39 -41 c-21
-22 -39 -47 -39 -57 0 -9 -5 -20 -10 -23 -6 -4 -8 -10 -5 -15 3 -5 -12 -47
-34 -92 -39 -80 -90 -143 -121 -150 -8 -2 -17 -6 -20 -10 -3 -3 -12 -8 -20
-10 -8 -2 -23 -11 -34 -20 -20 -18 -19 -18 10 -49 28 -29 94 -70 122 -75 8 -1
21 -6 30 -10 9 -4 22 -8 27 -10 6 -1 37 -9 70 -18 33 -9 83 -19 110 -22 28 -4
54 -9 58 -11 11 -7 92 -14 136 -13 60 2 91 -10 97 -35 3 -14 15 -27 25 -30 10
-4 19 -11 19 -16 0 -6 5 -7 11 -3 8 5 8 1 0 -14 -15 -28 -16 -28 30 -24 30 3
39 8 35 19 -4 8 12 32 40 58 42 42 49 45 97 44 29 0 61 2 72 4 28 6 135 20
165 21 14 1 27 4 30 7 3 4 28 12 55 18 54 12 60 14 90 25 11 5 32 12 47 18 15
6 31 10 35 11 17 1 95 85 89 95 -4 6 -24 19 -44 29 -20 9 -40 22 -44 27 -4 6
-8 7 -8 2 0 -13 -78 67 -82 84 -2 8 -6 17 -9 20 -9 9 -46 94 -59 138 -13 42
-33 55 -43 28 -7 -19 95 -224 131 -262 17 -18 39 -35 51 -39 12 -3 21 -11 21
-16 0 -6 3 -8 8 -5 4 2 15 -2 25 -9 18 -13 17 -14 -5 -26 -13 -7 -28 -19 -33
-26 -6 -8 -17 -15 -25 -17 -8 -2 -28 -8 -43 -15 -16 -6 -33 -9 -38 -5 -5 3 -9
1 -9 -5 0 -5 -12 -12 -27 -15 -16 -4 -39 -9 -53 -12 -14 -3 -38 -8 -55 -12
-16 -3 -45 -6 -62 -7 -18 0 -33 -4 -33 -9 0 -4 -20 -6 -45 -4 -25 2 -45 0 -45
-3 0 -4 -19 -7 -42 -7 -24 -1 -62 -3 -85 -6 l-42 -6 0 260 c0 143 -3 266 -8
272 -28 45 -35 94 -39 278 -3 161 -1 205 13 250 9 30 21 58 26 61 5 3 8 9 8
13 -2 17 1 25 25 57 22 29 25 31 19 9 -4 -14 -11 -27 -14 -30 -4 -3 -6 -11 -5
-17 1 -7 2 -21 3 -31 0 -11 12 -32 25 -47 24 -28 25 -28 145 -27 98 0 121 -2
121 -14 0 -21 16 -17 44 11 14 14 31 25 38 25 8 0 22 14 32 31 22 38 27 195 7
232 -7 12 -38 33 -71 47 -56 23 -69 39 -43 47 6 2 17 -3 26 -11 8 -8 17 -13
19 -10 3 2 11 -2 18 -11 7 -8 18 -15 25 -15 8 0 15 -6 18 -12 10 -29 19 6 19
72 0 58 -5 78 -23 105 -13 19 -25 32 -28 30 -2 -2 -13 1 -25 7 -11 7 -27 13
-34 14 -8 1 -21 6 -30 10 -9 4 -34 9 -54 11 l-38 4 -1 -40 c-3 -134 -5 -129
46 -137 28 -4 44 -11 42 -18 -4 -11 -40 -11 -67 1 -8 3 -31 5 -50 5 -19 -1
-49 0 -67 3 l-31 6 0 105 c0 57 -2 107 -5 110 -6 7 -243 11 -289 6z m-95 -690
c-2 -7 1 -12 7 -12 6 0 9 -61 9 -157 0 -87 1 -165 3 -173 2 -11 -7 -15 -40
-16 -37 -2 -42 1 -37 15 4 9 7 86 7 171 0 85 5 163 10 173 10 20 45 19 41 -1z
m-80 -564 c32 -19 94 -86 107 -119 7 -16 21 -31 31 -34 10 -4 25 -13 33 -20
12 -12 19 -11 50 10 45 30 55 32 31 5 -10 -11 -15 -20 -10 -20 4 0 2 -7 -5
-15 -7 -8 -16 -12 -21 -9 -5 3 -9 1 -9 -5 0 -15 -73 -27 -78 -12 -2 6 -7 9
-12 6 -5 -3 -16 2 -24 11 -9 8 -16 12 -16 8 0 -4 -11 3 -25 16 -14 13 -25 29
-25 35 0 7 -9 20 -20 30 -11 10 -20 23 -20 30 0 6 -20 21 -45 33 -25 12 -45
17 -45 12 0 -6 -7 -10 -15 -10 -8 0 -15 -4 -15 -9 0 -5 -7 -11 -15 -15 -31
-11 13 50 47 67 40 20 71 21 101 5z"/>
<path d="M1110 1123 c-12 -14 -15 -51 -14 -183 1 -91 -3 -170 -8 -176 -6 -8 2
-13 24 -16 66 -7 63 -16 60 185 -2 108 -8 187 -14 194 -14 18 -31 16 -48 -4z"/>
<path d="M1135 573 c-39 -7 -93 -36 -98 -52 -3 -9 -8 -25 -12 -36 -8 -19 -7
-19 16 1 13 12 32 24 42 28 26 9 74 -22 100 -63 31 -52 77 -101 93 -101 8 0
14 -4 14 -8 0 -15 70 -13 103 3 18 8 38 29 46 46 17 38 9 47 -17 19 -27 -30
-56 -32 -93 -7 -18 12 -31 24 -29 27 2 3 -5 15 -15 28 -11 12 -19 25 -17 27 3
6 -54 55 -88 76 -14 8 -34 13 -45 12z"/>
</g>
</svg>
