<?xml version="1.0" encoding="UTF-8" standalone="no"?>

<svg
   width="53.65099mm"
   height="63.67519mm"
   viewBox="0 0 53.65099 63.67519"
   version="1.1"
   id="svg1"
   xml:space="preserve"
   xmlns="http://www.w3.org/2000/svg"
   xmlns:svg="http://www.w3.org/2000/svg">
    <style>
        path {
            fill: #444;
        }
        @media (prefers-color-scheme: dark) {
            path {
                fill: #c9d1d9;
            }
        }
    </style>
    <g>
        <path
       style="display:inline;opacity:1;fill-opacity:1;stroke-width:0.264583"
       d="M 21.634038,0.90410887 V 9.0410789 h -4.068486 v -6.61923 c -5.209182,0 -8.2000157,2.91537 -8.2000157,3.58376 V 19.874529 l 5.17e-4,-5.1e-4 c 0,1.13562 2.6575417,2.88922 3.5925447,2.88922 v 15.57373 l -2.867008,2.6572 c 0,2.38514 -2.7527877,7.73956 -3.9067377,8.95088 -1.153952,1.21131 -3.45064,2.49179 -5.146973,3.40031 0,2.37788 6.541768,6.42844 23.4151077,7.46983 0.13257,0.82599 0.88763,1.64722 2.51096,2.47323 l -0.71985,1.28778 3.14554,0.003 -0.69712,-1.29088 c 1.41304,-0.54981 2.09305,-1.42303 2.4598,-2.47323 10.74873,-1.04407 21.29433,-2.6899 23.53655,-7.27191 -1.34672,-0.87933 -3.86122,-2.11172 -5.34283,-3.57756 -1.48158,-1.46585 -3.30399,-5.65369 -3.88606,-8.64754 h -1.08573 c 0.63725,4.56333 3.02765,7.93374 4.4049,9.3059 1.37728,1.37214 2.86834,2.21789 4.4018,3.10523 -2.89888,3.6362 -18.15743,5.81205 -23.21615,5.81205 v -18.46916 l -1.74356,-4.48861 v -12.49588 c 0.41492,-2.60475 1.26273,-5.07346 3.31297,-7.16339 -0.77362,2.31897 -1.51715,4.23263 1.38131,5.78673 h 8.70541 l -0.52916,0.97927 h 1.14825 c 0,-0.43219 0.83837,-1.51723 1.36839,-1.54203 0.53002,-0.0248 2.14561,-1.51253 2.14561,-2.24999 v -7.11171 c 0,-0.86191 -4.83767,-3.6809101 -8.10339,-3.6809101 h -4.39249 V 0.90400887 Z M 37.650627,2.4678389 v 5.97587 c 3.1688,0.0484 6.24834,1.7263401 8.10339,3.2023801 V 5.8929589 c -0.9247,-1.58449 -3.77233,-3.42512 -8.10339,-3.42512 z M 18.775298,24.572439 c 0.719518,0 1.284676,1.46579 1.284676,1.81487 v 11.19932 h 0.433048 v 0.9064 h -3.414778 v -0.9064 h 0.440283 v -11.19932 c 0,-0.37503 0.537251,-1.81487 1.256771,-1.81487 z m 16.971059,0 c -0.71952,0 -1.25677,1.43984 -1.25677,1.81487 v 11.19932 h -0.44029 v 0.9064 h 3.41478 v -0.9064 h -0.43305 v -11.19932 c 0,-0.34908 -0.56515,-1.81487 -1.28467,-1.81487 z M 14.89078,44.603769 c 1.007197,0.0328 2.159272,0.53812 3.415812,1.84692 1.120228,1.16682 2.041289,3.02444 2.619479,3.64732 0.578198,0.62289 2.821916,2.02404 4.405936,0.12144 0.24642,-0.29598 0.58796,-0.31014 0.50126,0.19585 -0.58091,3.39229 -5.578698,3.85846 -7.884792,0.6196 -0.67351,-0.94592 -0.92376,-1.56367 -1.750798,-2.51664 -0.587058,-0.67649 -3.03889,-2.86859 -4.531506,-0.98909 -0.48581,0.61174 -0.964702,0.27553 -0.681612,-0.24546 0.588372,-1.08284 1.983391,-2.74264 3.906221,-2.67994 z m 20.912417,0 c -1.92283,-0.0627 -3.31836,1.5971 -3.90674,2.67994 -0.28309,0.52099 0.19632,0.8572 0.68213,0.24546 1.49262,-1.87951 3.94445,0.3126 4.53151,0.98909 0.82704,0.95297 1.07729,1.57072 1.7508,2.51664 2.30609,3.23886 7.30388,2.77269 7.88479,-0.6196 0.0867,-0.50599 -0.25536,-0.49183 -0.50178,-0.19585 -1.58402,1.9026 -3.82773,0.50145 -4.40593,-0.12144 -0.57819,-0.62288 -1.49925,-2.4805 -2.61948,-3.64732 -1.25655,-1.3088 -2.4081,-1.81407 -3.4153,-1.84692 z"
       nodetypes="ccccscccccsccccccccsccsccccccccccssssccccccccssccccccssssccccccsssssscsssssssssscssss" />
    </g>
</svg>