<?xml version="1.0" encoding="UTF-8" standalone="no"?>
<svg
   width="1018.114"
   height="1206.9023"
   viewBox="0 0 78.499029 93.055067"
   version="1.1"
   id="svg4"
   xml:space="preserve"
   xmlns="http://www.w3.org/2000/svg">
    <style>
        path {
            fill: black;
        }
    </style>
    <defs
     id="defs4" /><path
     id="path4"
     style="display:inline"
     d="M 39.299247,3.0712891e-7 C 36.593099,-3.6869287e-4 34.090225,0.19287031 31.582231,0.57887031 V 10.610916 c -2.507996,0.193 -4.823095,0.771949 -6.945089,1.350949 V 1.9289153 c -4.050992,1.156998 -7.90889,2.701063 -11.188884,4.630059 V 27.200883 l 4.629909,4.630059 -1.350949,23.343055 -3.857981,3.85888 c -0.466661,8.07609 -5.6043768,14.34278 -12.51212283,17.3884 -0.463097,0.20418 -0.489042,0.915 0,1.51826 5.70143803,7.03302 19.41439983,8.00195 33.86933683,9.58946 0.461389,2.72987 1.875009,3.15855 3.5056,3.74037 l -0.8668,1.7857 h 4.294694 l -1.087114,-1.7857 c 2.807517,-0.69805 3.341012,-2.18441 3.535713,-3.74037 23.80306,-2.08287 29.75805,-5.67586 34.54113,-9.74653 0.3226,-0.27455 0.59019,-0.7592 0,-1.02462 -9.83599,-4.42333 -11.80821,-10.59814 -13.38284,-17.46821 h -1.41676 c 2.34748,11.23806 7.43747,15.11574 13.09145,18.13201 -5.95707,6.17547 -29.86139,9.15704 -34.248377,8.62373 v -27.78352 l -2.507936,-3.08786 V 31.252975 l 5.016023,-7.717016 -2.123027,7.330902 c 5.849297,-0.624733 11.853917,0.05794 17.362947,2.122123 l 4.82206,-4.630059 V 16.011999 c -4.91362,-2.456812 -10.34104,-3.652115 -17.36099,-4.823116 V 0.57887031 C 44.718374,0.19409431 42.005395,3.6930713e-4 39.299247,3.0712891e-7 Z M 54.347164,2.1219723 v 8.8740037 c 3.857,0.772 7.33007,2.12202 10.41605,3.472018 V 6.1728603 c -3.08598,-1.735996 -6.75205,-3.08689 -10.41605,-4.050888 z M 25.79428,34.339933 c 0.963998,0 1.736009,0.77101 1.736009,1.736008 l 0.192906,17.170046 h -3.857981 l 0.193057,-17.170046 c 0,-0.964998 0.772011,-1.736008 1.736009,-1.736008 z m 24.886904,0 c -0.965,0 -1.54295,0.77101 -1.54295,1.736008 l -0.38702,17.170046 h 3.85904 l -0.19306,-17.170046 c 0,-0.964998 -0.77101,-1.736008 -1.73601,-1.736008 z M 19.8586,63.932647 c 1.560814,0 3.262155,0.77197 4.256143,1.92997 4.39721,5.59398 5.956507,8.29497 7.517333,9.25997 1.559348,0.772 3.687799,-0.578 4.254637,-2.701 0.14189,-0.385 0.424987,-0.19194 0.282357,0.19306 -0.849888,2.894 -2.410733,4.82206 -4.964069,4.82206 -2.977554,0 -4.538421,-2.69901 -8.226163,-7.32999 -3.120172,-4.051 -3.687824,-4.43806 -5.24718,-4.43806 -0.993978,0 -1.843761,0.58004 -2.695121,1.15804 -0.283778,0 -0.283895,-6e-5 -0.142007,-0.19306 1.276298,-1.543 2.979774,-2.70099 4.96407,-2.70099 z m 29.316534,0 c -1.9843,0 -3.68777,1.15799 -4.96407,2.70099 -0.14189,0.193 -0.14193,0.19306 0.14185,0.19306 0.85136,-0.578 1.7013,-1.15804 2.69527,-1.15804 1.55936,0 2.12686,0.38706 5.24703,4.43806 3.68775,4.63099 5.24861,7.32999 8.22617,7.32999 2.55334,0 4.11418,-1.92806 4.96407,-4.82206 0.14263,-0.385 -0.14047,-0.57806 -0.28236,-0.19306 -0.56684,2.123 -2.69514,3.473 -4.25449,2.701 -1.56083,-0.965 -3.12027,-3.66598 -7.51748,-9.25997 -0.99399,-1.158 -2.69517,-1.92997 -4.25599,-1.92997 z" /></svg>
